<svg id="Grupo_679" data-name="Grupo 679" xmlns="http://www.w3.org/2000/svg" width="27.504" height="28.516" viewBox="0 0 27.504 28.516">
  <g id="Path_47_1_">
    <path id="Caminho_313" data-name="Caminho 313" d="M24.167,0H3.337A3.367,3.367,0,0,0,0,3.337V18.909a3.367,3.367,0,0,0,3.337,3.337h.607v6.269l6.269-6.269H24.168A3.367,3.367,0,0,0,27.5,18.909V3.337A3.367,3.367,0,0,0,24.167,0Zm1.82,18.909a1.813,1.813,0,0,1-1.82,1.82H9.606L5.46,24.875V20.729H3.337a1.813,1.813,0,0,1-1.82-1.82V3.337a1.813,1.813,0,0,1,1.82-1.82H24.167a1.813,1.813,0,0,1,1.82,1.82V18.909Z" fill="#505153"/>
  </g>
  <g id="Grupo_679-2" data-name="Grupo 679" transform="translate(7.988 5.764)">
    <path id="Caminho_314" data-name="Caminho 314" d="M13.664,16.14a6.369,6.369,0,0,0,5.764-3.64H7.9A6.369,6.369,0,0,0,13.664,16.14Z" transform="translate(-7.9 -5.624)" fill="#505153"/>
    <path id="Caminho_315" data-name="Caminho 315" d="M9.717,5.7h0A1.555,1.555,0,0,0,8.2,7.217a1.517,1.517,0,0,0,3.034,0A1.555,1.555,0,0,0,9.717,5.7Z" transform="translate(-7.897 -5.7)" fill="#505153"/>
    <path id="Caminho_316" data-name="Caminho 316" d="M16,7.217a1.517,1.517,0,0,0,3.034,0A1.555,1.555,0,0,0,17.517,5.7h0A1.489,1.489,0,0,0,16,7.217Z" transform="translate(-7.809 -5.7)" fill="#505153"/>
  </g>
</svg>
