<svg xmlns="http://www.w3.org/2000/svg" width="24.882" height="25.5" viewBox="0 0 24.882 25.5">
  <g id="postos" transform="translate(-196 -518)">
    <path id="Caminho_111" data-name="Caminho 111" d="M86.753,64.829A.827.827,0,0,0,85.923,64H77.629a.827.827,0,0,0-.829.829v6.635a.827.827,0,0,0,.829.829h8.294a.827.827,0,0,0,.829-.829Zm-1.659,5.806H78.459V65.659h6.635Zm0,0" transform="translate(124.176 458.147)" fill="#505153"/>
    <path id="Caminho_112" data-name="Caminho 112" d="M24.441,5.884l-3.3-1.659A.827.827,0,1,0,20.4,5.709l1.257.629a.889.889,0,0,0-.078.285,2.66,2.66,0,0,0,1.639,2.333V19.063a.829.829,0,1,1-1.659,0V12.428a4.4,4.4,0,0,0-3.318-4.063V3.3A3.28,3.28,0,0,0,14.968,0H5.015A3.346,3.346,0,0,0,1.659,3.3V20.828l-1.2.6a.836.836,0,0,0-.46.739v2.488a.872.872,0,0,0,.868.842H19.115a.806.806,0,0,0,.791-.842V22.169a.817.817,0,0,0-.46-.739l-1.2-.6V10.1a2.687,2.687,0,0,1,1.659,2.333v6.635a2.488,2.488,0,1,0,4.976,0V6.622a.8.8,0,0,0-.441-.739ZM18.247,23.841H1.659v-1.16l1.2-.6a.839.839,0,0,0,.46-.745V3.3a1.685,1.685,0,0,1,1.7-1.646h9.953A1.618,1.618,0,0,1,16.588,3.3V21.34a.817.817,0,0,0,.46.739l1.2.6Zm0,0" transform="translate(196 518)" fill="#505153"/>
  </g>
</svg>
