<svg id="Grupo_685" data-name="Grupo 685" xmlns="http://www.w3.org/2000/svg" width="30" height="24.7" viewBox="0 0 30 24.7">
  <path id="Path_317_1_" d="M24.7,24.6A3.471,3.471,0,0,0,28,21.3v-.9h2V12.9a3.9,3.9,0,0,0-2.2-3.5h-.1L24.2,0H5.9L2.3,9.3H2.2A4.173,4.173,0,0,0,0,12.9v7.5H2v1a3.487,3.487,0,0,0,3.4,3.3h.2a3.471,3.471,0,0,0,3.3-3.3v-.9H21v1A3.525,3.525,0,0,0,24.7,24.6ZM26,21.4a1.453,1.453,0,0,1-1.5,1.4,1.347,1.347,0,0,1-1.4-1.3v-.8H26ZM7.1,1.8H23L25.7,9H22L17,4.9,15.9,6.3,19.1,9H14.2l-5-4.1L8.1,6.2,11.4,9h-7Zm.2,19.6A1.759,1.759,0,0,1,5.5,23h0a1.58,1.58,0,0,1-1.6-1.6h0v-1H7.3v1Zm10.3-2.8H12.4V15.9h5.2Zm1.8,0V14.1H10.5v4.5H1.8V12.8a2.094,2.094,0,0,1,2-2.1H26.1a2.094,2.094,0,0,1,2.1,2v5.9Z" fill="#ebac00"/>
  <circle id="Elipse_56" data-name="Elipse 56" cx="1.3" cy="1.3" r="1.3" transform="translate(4.9 13.5)" fill="#ebac00"/>
  <circle id="Elipse_57" data-name="Elipse 57" cx="1.3" cy="1.3" r="1.3" transform="translate(22.3 13.5)" fill="#ebac00"/>
</svg>
