<svg id="Grupo_688" data-name="Grupo 688" xmlns="http://www.w3.org/2000/svg" width="25.7" height="25.7" viewBox="0 0 25.7 25.7">
  <rect id="Retângulo_176" data-name="Retângulo 176" width="13.2" height="1.8" transform="translate(6.3 7.1)" fill="#505153"/>
  <rect id="Retângulo_177" data-name="Retângulo 177" width="7.5" height="1.8" transform="translate(6.3 12)" fill="#505153"/>
  <rect id="Retângulo_178" data-name="Retângulo 178" width="2.8" height="1.8" transform="translate(16.7 12)" fill="#505153"/>
  <rect id="Retângulo_179" data-name="Retângulo 179" width="7.5" height="1.8" transform="translate(6.3 16.9)" fill="#505153"/>
  <g id="Group_238_1_" transform="translate(264 518)">
    <g id="Path_70_1_">
      <g id="Grupo_688-2" data-name="Grupo 688">
        <path id="Caminho_317" data-name="Caminho 317" d="M-245.2-492.3h-11.9a6.914,6.914,0,0,1-6.9-6.9h0v-11.9a6.914,6.914,0,0,1,6.9-6.9h11.9a6.914,6.914,0,0,1,6.9,6.9h0v11.9a6.914,6.914,0,0,1-6.9,6.9Z" fill="none"/>
      </g>
      <g id="Grupo_689" data-name="Grupo 689">
        <path id="Caminho_318" data-name="Caminho 318" d="M-245.2-493.9a5.335,5.335,0,0,0,5.3-5.3v-11.9a5.335,5.335,0,0,0-5.3-5.3h-11.9a5.335,5.335,0,0,0-5.3,5.3v11.9a5.335,5.335,0,0,0,5.3,5.3h11.9m0,1.6h-11.9a6.914,6.914,0,0,1-6.9-6.9v-11.9a6.914,6.914,0,0,1,6.9-6.9h11.9a6.914,6.914,0,0,1,6.9,6.9v11.9A6.914,6.914,0,0,1-245.2-492.3Z" fill="#505153"/>
      </g>
    </g>
  </g>
</svg>
